<svg version="1.1" xmlns="http://www.w3.org/2000/svg" xmlns:xlink="http://www.w3.org/1999/xlink" x="0px" y="0px"
	 viewBox="0 0 512 512" style="enable-background:new 0 0 512 512;" xml:space="preserve">
<path style="fill:#2AABEE;" d="M256,0C114.615,0,0,114.615,0,256s114.615,256,256,256s256-114.615,256-256S397.385,0,256,0z"/>
<path style="fill:#FFFFFF;" d="M380.5,150.5l-60.5,285.5c-4.5,20.5-16,25.5-32.5,16l-90-66.5l-43.5,41.5
	c-7.5,7.5-14,14-28.5,14l20.5-90.5l165-149.5c7-6-1.5-9.5-10.5-3.5l-204,128.5l-88-27.5c-19-6-19-19,4-29l340.5-131.5
	C378.5,148.5,390.5,141.5,380.5,150.5z"/>
</svg>

