<svg version="1.1" xmlns="http://www.w3.org/2000/svg" xmlns:xlink="http://www.w3.org/1999/xlink" x="0px" y="0px"
	 viewBox="0 0 512 512" style="enable-background:new 0 0 512 512;" xml:space="preserve">
<path style="fill:#7B519D;" d="M256,0C114.615,0,0,114.615,0,256s114.615,256,256,256s256-114.615,256-256S397.385,0,256,0z"/>
<path style="fill:#FFFFFF;" d="M256,128c-70.692,0-128,57.308-128,128c0,70.692,57.308,128,128,128s128-57.308,128-128
	C384,185.308,326.692,128,256,128z M256,352c-52.935,0-96-43.065-96-96s43.065-96,96-96s96,43.065,96,96S308.935,352,256,352z"/>
<path style="fill:#FFFFFF;" d="M256,192c-35.346,0-64,28.654-64,64s28.654,64,64,64s64-28.654,64-64S291.346,192,256,192z M256,288
	c-17.673,0-32-14.327-32-32s14.327-32,32-32s32,14.327,32,32S273.673,288,256,288z"/>
<path style="fill:#FFFFFF;" d="M192,320c-8.837,0-16,7.163-16,16s7.163,16,16,16s16-7.163,16-16S200.837,320,192,320z"/>
<path style="fill:#FFFFFF;" d="M320,320c-8.837,0-16,7.163-16,16s7.163,16,16,16s16-7.163,16-16S328.837,320,320,320z"/>
</svg>

